<svg width="22" height="23" viewBox="0 0 22 23" fill="none" xmlns="http://www.w3.org/2000/svg">
<path d="M11.7216 22.2472C9.96023 22.2472 8.39773 22.0057 7.03409 21.5227C5.67614 21.0455 4.53125 20.3409 3.59943 19.4091C2.66761 18.483 1.96023 17.3466 1.47727 16C0.994318 14.6534 0.752841 13.1165 0.752841 11.3892C0.752841 9.70739 0.997159 8.19602 1.4858 6.85511C1.97443 5.5142 2.68466 4.37216 3.61648 3.42898C4.55398 2.48011 5.69318 1.75568 7.03409 1.25568C8.375 0.755681 9.89773 0.505681 11.6023 0.505681C13.233 0.505681 14.6705 0.761363 15.9148 1.27273C17.1591 1.78409 18.2045 2.48579 19.0511 3.37784C19.9034 4.26989 20.5455 5.29261 20.9773 6.44602C21.4091 7.59943 21.625 8.81818 21.625 10.1023C21.625 11 21.5682 11.8778 21.4545 12.7358C21.3409 13.5881 21.1307 14.3608 20.8239 15.054C20.5227 15.7415 20.0852 16.2926 19.5114 16.7074C18.9432 17.1165 18.2045 17.3295 17.2955 17.3466C16.8125 17.3636 16.3438 17.3068 15.8892 17.1761C15.4347 17.0455 15.0483 16.8352 14.7301 16.5455C14.4119 16.25 14.2188 15.875 14.1506 15.4205H14.0483C13.9119 15.7557 13.6847 16.0682 13.3665 16.358C13.0483 16.642 12.642 16.8693 12.1477 17.0398C11.6591 17.2045 11.0909 17.2727 10.4432 17.2443C9.72727 17.2159 9.08239 17.054 8.50852 16.7585C7.93466 16.4631 7.44318 16.054 7.03409 15.5312C6.63068 15.0085 6.32102 14.3892 6.10511 13.6733C5.8892 12.9574 5.78125 12.1619 5.78125 11.2869C5.78125 10.446 5.90341 9.69318 6.14773 9.02841C6.39205 8.35795 6.72443 7.78125 7.14489 7.2983C7.57102 6.80966 8.05966 6.4233 8.6108 6.1392C9.16193 5.85511 9.74432 5.67614 10.358 5.60227C10.9545 5.53409 11.5028 5.55114 12.0028 5.65341C12.5028 5.75568 12.9176 5.91193 13.2472 6.12216C13.5824 6.33239 13.7926 6.5625 13.8778 6.8125H13.9886V5.85795H16.0852V13.767C16.0852 14.2159 16.2017 14.5966 16.4347 14.9091C16.6733 15.2216 17.0114 15.3778 17.4489 15.3778C17.9659 15.3778 18.3693 15.1875 18.6591 14.8068C18.9545 14.4261 19.1619 13.8409 19.2812 13.0511C19.4062 12.2614 19.4688 11.25 19.4688 10.017C19.4688 9.15341 19.3523 8.34091 19.1193 7.57955C18.892 6.8125 18.554 6.11932 18.1051 5.5C17.6619 4.875 17.1165 4.33807 16.4688 3.8892C15.821 3.44034 15.0824 3.09375 14.2528 2.84943C13.429 2.60511 12.517 2.48295 11.517 2.48295C10.1591 2.48295 8.9517 2.69318 7.89489 3.11364C6.83807 3.52841 5.94602 4.12784 5.21875 4.91193C4.49716 5.69602 3.94886 6.63636 3.57386 7.73295C3.20455 8.82386 3.01989 10.0483 3.01989 11.4062C3.01989 12.821 3.21023 14.0767 3.59091 15.1733C3.97159 16.2642 4.53409 17.1847 5.27841 17.9347C6.02273 18.6847 6.94318 19.2528 8.03977 19.6392C9.13636 20.0313 10.4006 20.2273 11.8324 20.2273C12.4688 20.2273 13.0938 20.1705 13.7074 20.0568C14.321 19.9489 14.8665 19.8239 15.3438 19.6818C15.8267 19.5455 16.1875 19.4347 16.4261 19.3494L17.0227 21.2159C16.6705 21.3807 16.2017 21.5426 15.6165 21.7017C15.0369 21.8608 14.4063 21.9915 13.7244 22.0938C13.0483 22.196 12.3807 22.2472 11.7216 22.2472ZM10.9375 15.1562C11.6761 15.1562 12.2699 15.0085 12.7188 14.7131C13.1733 14.4176 13.5 13.9773 13.6989 13.392C13.9034 12.8011 14.0057 12.0625 14.0057 11.1761C14 10.3125 13.8892 9.625 13.6733 9.11364C13.4631 8.59659 13.1335 8.22727 12.6847 8.00568C12.2415 7.77841 11.6705 7.66477 10.9716 7.66477C10.3295 7.66477 9.78125 7.82102 9.3267 8.13352C8.87784 8.44602 8.53409 8.86932 8.29545 9.40341C8.0625 9.9375 7.94318 10.5312 7.9375 11.1847C7.94318 11.8722 8.03977 12.5199 8.22727 13.1278C8.42045 13.7301 8.73295 14.2188 9.16477 14.5938C9.60227 14.9688 10.1932 15.1562 10.9375 15.1562Z" fill="#616060"/>
</svg>
