<svg width="19" height="18" viewBox="0 0 19 18" fill="none" xmlns="http://www.w3.org/2000/svg">
<path d="M10.959 7.842C10.3447 7.22793 9.51162 6.88297 8.64301 6.88297C7.77439 6.88297 6.94134 7.22793 6.32701 7.842L4.01025 10.158C3.39591 10.7723 3.05078 11.6056 3.05078 12.4744C3.05078 13.3432 3.39591 14.1764 4.01025 14.7908C4.6246 15.4051 5.45782 15.7502 6.32663 15.7502C7.19544 15.7502 8.02866 15.4051 8.64301 14.7908L9.80101 13.6328" stroke="#C8C9CA" stroke-width="2" stroke-linecap="round" stroke-linejoin="round"/>
<path d="M8.64258 10.158C9.25691 10.7721 10.09 11.117 10.9586 11.117C11.8272 11.117 12.6602 10.7721 13.2746 10.158L15.5913 7.84201C16.2057 7.22767 16.5508 6.39444 16.5508 5.52564C16.5508 4.65683 16.2057 3.8236 15.5913 3.20926C14.977 2.59492 14.1438 2.24979 13.275 2.24979C12.4061 2.24979 11.5729 2.59492 10.9586 3.20926L9.80058 4.36726" stroke="#C8C9CA" stroke-width="2" stroke-linecap="round" stroke-linejoin="round"/>
</svg>
