<svg width="19" height="18" viewBox="0 0 19 18" fill="none" xmlns="http://www.w3.org/2000/svg">
<path d="M14.3008 5.62501C14.3018 5.18152 14.2152 4.7422 14.0459 4.33228C13.8766 3.92236 13.6281 3.54991 13.3145 3.23632C13.0009 2.92272 12.6284 2.67416 12.2185 2.5049C11.8086 2.33564 11.3693 2.24902 10.9258 2.25001H8.35329C7.54372 2.25001 6.7673 2.57161 6.19485 3.14406C5.62239 3.71652 5.30079 4.49294 5.30079 5.30251C5.30194 5.94248 5.50372 6.56599 5.87773 7.08531C6.25175 7.60462 6.77917 7.9936 7.38579 8.19751L12.2158 9.80251C12.8224 10.0064 13.3498 10.3954 13.7238 10.9147C14.0979 11.434 14.2996 12.0575 14.3008 12.6975C14.3008 13.5071 13.9792 14.2835 13.4067 14.856C12.8343 15.4284 12.0579 15.75 11.2483 15.75H8.67579C8.2323 15.751 7.79298 15.6644 7.38306 15.4951C6.97314 15.3259 6.60069 15.0773 6.2871 14.7637C5.9735 14.4501 5.72494 14.0777 5.55568 13.6677C5.38642 13.2578 5.2998 12.8185 5.30079 12.375" stroke="#C8C9CA" stroke-width="1.5" stroke-linecap="round" stroke-linejoin="round"/>
<path d="M3.05078 9H16.5508" stroke="#C8C9CA" stroke-width="1.5" stroke-linecap="round" stroke-linejoin="round"/>
</svg>
