<svg width="24" height="25" viewBox="0 0 24 25" fill="none" xmlns="http://www.w3.org/2000/svg">
<path d="M19 10.5H5C3.89543 10.5 3 11.3954 3 12.5V20.5C3 21.6046 3.89543 22.5 5 22.5H19C20.1046 22.5 21 21.6046 21 20.5V12.5C21 11.3954 20.1046 10.5 19 10.5Z" fill="black" stroke="black" stroke-linecap="round" stroke-linejoin="round"/>
<path d="M6.87868 4.37868C6.31607 4.94129 6 5.70435 6 6.5V10.5H18V6.5C18 5.70435 17.6839 4.94129 17.1213 4.37868C16.5587 3.81607 15.7956 3.5 15 3.5H9C8.20435 3.5 7.44129 3.81607 6.87868 4.37868Z" stroke="black" stroke-linecap="round" stroke-linejoin="round"/>
</svg>
