<svg width="32" height="32" viewBox="0 0 32 32" fill="none" xmlns="http://www.w3.org/2000/svg">
<path d="M26.3333 19.0867C26.3333 16.3493 23.1667 17 20.5 17V27C21.9145 27 23.771 27.1048 24.7712 26.1046C25.7714 25.1044 26.3333 23.7478 26.3333 22.3333V19.0867Z" stroke="#60605F" stroke-width="2" stroke-linecap="round" stroke-linejoin="round"/>
<path d="M6.4987 19.0867C6.4987 16.3493 9.66536 17 12.332 17V27C10.9175 27 9.06099 27.1048 8.0608 26.1046C7.0606 25.1044 6.4987 23.7478 6.4987 22.3333V19.0867Z" stroke="#60605F" stroke-width="2" stroke-linecap="round" stroke-linejoin="round"/>
<path d="M6 22V13.3333C6 11.2116 7.49971 10.0003 9 8.5C10.5003 6.99971 14.3783 5.5 16.5 5.5C18.6217 5.5 22.4997 6.99971 24 8.5C25.2404 9.74044 26.5 11.2116 26.5 13.3333V22" stroke="#60605F" stroke-width="2" stroke-linecap="round" stroke-linejoin="round"/>
</svg>
