<svg width="21" height="21" viewBox="0 0 21 21" fill="none" xmlns="http://www.w3.org/2000/svg">
<path d="M14.5333 17.2952C15.2024 17.2952 16.2124 17.7629 17.2365 18.3659C18.1624 18.911 19.4281 17.8479 18.9486 16.8864L18.0034 14.991C17.8554 14.6943 17.8642 14.3441 18.0139 14.0482C18.3794 13.3256 19.0342 11.9078 19.1525 10.8118C19.4167 8.36625 18.7731 6.7623 17.3049 4.7915C15.5643 2.45513 13.7295 1.40462 10.8382 1.08671C8.44593 0.823657 6.82669 1.12385 4.83345 2.47601C2.55296 4.02302 1.54737 5.76637 1.1382 8.4963C0.722058 11.2727 1.21974 13.264 2.98582 15.4428C4.86894 17.766 6.92861 17.7987 9.91425 17.7583C11.7974 17.7329 12.65 17.2952 14.5333 17.2952Z" stroke="#464446" stroke-width="2"/>
<path d="M5.75684 8.0332H14.5331" stroke="#464446" stroke-width="2"/>
<path d="M5.75684 11.738H12.2235" stroke="#464446" stroke-width="2"/>
</svg>
