<svg width="28" height="27" viewBox="0 0 28 27" fill="none" xmlns="http://www.w3.org/2000/svg">
<path d="M0 25.75H27.5" stroke="#616060" stroke-width="2"/>
<path d="M3.09375 22.25H1.0625L6.9375 6.25H8.9375L14.8125 22.25H12.7812L8 8.78125H7.875L3.09375 22.25ZM3.84375 16H12.0313V17.7187H3.84375V16ZM19.7059 22.5313C18.9455 22.5313 18.2554 22.388 17.6356 22.1016C17.0158 21.8099 16.5236 21.3906 16.1591 20.8438C15.7945 20.2917 15.6122 19.625 15.6122 18.8437C15.6122 18.1562 15.7476 17.599 16.0184 17.1719C16.2893 16.7396 16.6512 16.401 17.1044 16.1562C17.5575 15.9115 18.0575 15.7292 18.6044 15.6094C19.1565 15.4844 19.7111 15.3854 20.2684 15.3125C20.9976 15.2187 21.5888 15.1484 22.0419 15.1016C22.5002 15.0495 22.8335 14.9635 23.0419 14.8437C23.2554 14.724 23.3622 14.5156 23.3622 14.2187V14.1562C23.3622 13.3854 23.1513 12.7865 22.7294 12.3594C22.3127 11.9323 21.6799 11.7187 20.8309 11.7187C19.9507 11.7187 19.2606 11.9115 18.7606 12.2969C18.2606 12.6823 17.9091 13.0937 17.7059 13.5312L15.9559 12.9062C16.2684 12.1771 16.6851 11.6094 17.2059 11.2031C17.732 10.7917 18.3049 10.5052 18.9247 10.3437C19.5497 10.1771 20.1643 10.0938 20.7684 10.0938C21.1539 10.0938 21.5966 10.1406 22.0966 10.2344C22.6018 10.3229 23.0888 10.5078 23.5575 10.7891C24.0315 11.0703 24.4247 11.4948 24.7372 12.0625C25.0497 12.6302 25.2059 13.3906 25.2059 14.3438V22.25H23.3622V20.625H23.2684C23.1434 20.8854 22.9351 21.1641 22.6434 21.4609C22.3518 21.7578 21.9638 22.0104 21.4794 22.2187C20.995 22.4271 20.4039 22.5313 19.7059 22.5313ZM19.9872 20.875C20.7164 20.875 21.3309 20.7318 21.8309 20.4453C22.3361 20.1589 22.7164 19.7891 22.9716 19.3359C23.232 18.8828 23.3622 18.4062 23.3622 17.9062V16.2187C23.2841 16.3125 23.1122 16.3984 22.8466 16.4766C22.5861 16.5495 22.2841 16.6146 21.9403 16.6719C21.6018 16.724 21.271 16.7708 20.9481 16.8125C20.6304 16.849 20.3726 16.8802 20.1747 16.9062C19.6955 16.9687 19.2476 17.0703 18.8309 17.2109C18.4195 17.3464 18.0861 17.5521 17.8309 17.8281C17.5809 18.099 17.4559 18.4687 17.4559 18.9375C17.4559 19.5781 17.6929 20.0625 18.1669 20.3906C18.646 20.7135 19.2528 20.875 19.9872 20.875Z" fill="#616060"/>
</svg>
