<svg width="22" height="20" viewBox="0 0 22 20" fill="none" xmlns="http://www.w3.org/2000/svg">
<path d="M1.00098 2L1.00104 8.00001H10.0006C10.5006 8.00001 10.5336 8.8166 10.5336 9.50001C10.5336 10.1834 10.5006 11 10.0006 11H1.03404L1.00058 18C0.996582 18.708 1.78104 19.223 2.46104 18.896L21.001 10L2.46104 1.104C1.77304 0.774 0.978977 1.279 1.00098 2Z" fill="#BCBBBC"/>
<path d="M1.00098 2L1.00104 8.00001C1.00104 8.00001 9.5006 8.00001 10.0006 8.00001C10.5006 8.00001 10.5336 8.8166 10.5336 9.50001C10.5336 10.1834 10.5006 11 10.0006 11C9.5006 11 1.03404 11 1.03404 11L1.00058 18M1.00098 2C0.988317 1.95429 1.00361 2.04736 1.00098 2ZM1.00098 2C0.978977 1.279 1.77304 0.774 2.46104 1.104L21.001 10L2.46104 18.896C1.78104 19.223 0.996582 18.708 1.00058 18M1.00058 18C1.00261 17.9368 0.98072 18.0601 1.00058 18Z" stroke="#BCBBBC" stroke-linecap="round" stroke-linejoin="round"/>
</svg>
