<svg width="25" height="24" viewBox="0 0 25 24" fill="none" xmlns="http://www.w3.org/2000/svg">
<path d="M16.5 7.99997C16.5 5.79083 14.7091 4.99997 12.5 4.99997C10.2909 4.99997 8.5 5.79083 8.5 7.99997V11.5C8.5 13.7091 10.2909 15 12.5 15C14.7091 15 16.5 13.7091 16.5 11.5V7.99997Z" stroke="#616060" stroke-width="2" stroke-linecap="round" stroke-linejoin="round"/>
<path d="M20 11.5C20 11.5 19.25 15.4398 18.5 16.292C17.75 17.1442 16.8269 17.8265 15.7922 18.2935C14.7576 18.7605 13.6352 19.0013 12.5 19C11.3648 19.0013 10.2424 18.7605 9.20776 18.2935C8.17309 17.8265 7.24995 17.1442 6.5 16.292C5.75005 15.4398 5.5 11.5 5.5 11.5" stroke="#616060" stroke-width="2" stroke-linecap="round" stroke-linejoin="round"/>
<path d="M12.5 19V22" stroke="#616060" stroke-width="2" stroke-linecap="round" stroke-linejoin="round"/>
<path d="M10.5 22H14.5" stroke="#616060" stroke-width="2" stroke-linecap="round" stroke-linejoin="round"/>
</svg>
