<svg width="18" height="18" viewBox="0 0 18 18" fill="none" xmlns="http://www.w3.org/2000/svg">
<path d="M5.25 2.25001H9.375C9.81849 2.24902 10.2578 2.33564 10.6677 2.5049C11.0776 2.67416 11.4501 2.92272 11.7637 3.23632C12.0773 3.54991 12.3258 3.92236 12.4951 4.33228C12.6644 4.7422 12.751 5.18152 12.75 5.62501C12.751 6.0685 12.6644 6.50781 12.4951 6.91773C12.3258 7.32765 12.0773 7.7001 11.7637 8.0137C11.4501 8.32729 11.0776 8.57586 10.6677 8.74512C10.2578 8.91438 9.81849 9.001 9.375 9.00001H5.25" stroke="#C8C9CA" stroke-width="2" stroke-linecap="round" stroke-linejoin="round"/>
<path d="M9.375 9.00001H10.875C11.3185 8.99902 11.7578 9.08564 12.1677 9.2549C12.5776 9.42416 12.9501 9.67272 13.2637 9.98632C13.5773 10.2999 13.8258 10.6724 13.9951 11.0823C14.1644 11.4922 14.251 11.9315 14.25 12.375C14.251 12.8185 14.1644 13.2578 13.9951 13.6677C13.8258 14.0777 13.5773 14.4501 13.2637 14.7637C12.9501 15.0773 12.5776 15.3259 12.1677 15.4951C11.7578 15.6644 11.3185 15.751 10.875 15.75H5.25" stroke="#C8C9CA" stroke-width="2" stroke-linecap="round" stroke-linejoin="round"/>
<path d="M5.25 15.75V2.25" stroke="#C8C9CA" stroke-width="2" stroke-linecap="round" stroke-linejoin="round"/>
</svg>
