<svg width="18" height="22" viewBox="0 0 18 22" fill="none" xmlns="http://www.w3.org/2000/svg">
<path d="M7.30078 5H17.8008" stroke="#C8C9CA" stroke-width="2"/>
<path d="M7.30078 11H17.8008" stroke="#C8C9CA" stroke-width="2"/>
<path d="M7.30078 18H17.8008" stroke="#C8C9CA" stroke-width="2"/>
<path d="M3.80362 2.68182V8.5H2.57351V3.84943H2.53942L1.20703 4.68466V3.59375L2.64737 2.68182H3.80362Z" fill="#C8C9CA"/>
<path d="M1.27237 19.5V18.6136L3.34339 16.696C3.51953 16.5256 3.66726 16.3722 3.78658 16.2358C3.90779 16.0994 3.99964 15.9659 4.06214 15.8352C4.12464 15.7027 4.15589 15.5597 4.15589 15.4062C4.15589 15.2358 4.11707 15.089 4.03942 14.9659C3.96177 14.8409 3.85571 14.7453 3.72124 14.679C3.58677 14.6108 3.4343 14.5767 3.26385 14.5767C3.08582 14.5767 2.93052 14.6127 2.79794 14.6847C2.66536 14.7566 2.56309 14.8598 2.49112 14.9943C2.41915 15.1288 2.38317 15.2888 2.38317 15.4744H1.21555C1.21555 15.0937 1.30173 14.7633 1.47408 14.483C1.64643 14.2027 1.8879 13.9858 2.19851 13.8324C2.50911 13.679 2.86707 13.6023 3.27237 13.6023C3.68904 13.6023 4.05173 13.6761 4.36044 13.8239C4.67105 13.9697 4.91252 14.1723 5.08487 14.4318C5.25722 14.6913 5.3434 14.9886 5.3434 15.3239C5.3434 15.5436 5.29983 15.7604 5.21271 15.9744C5.12749 16.1884 4.97502 16.4261 4.75533 16.6875C4.53563 16.947 4.22597 17.2585 3.82635 17.6222L2.97692 18.4545V18.4943H5.4201V19.5H1.27237Z" fill="#C8C9CA"/>
</svg>
