<svg width="22" height="22" viewBox="0 0 22 22" fill="none" xmlns="http://www.w3.org/2000/svg">
<path d="M14.5 5.5L7.5 16.5M1.5 4.41421V17.5858C1.5 17.851 1.60536 18.1054 1.79289 18.2929L3.70711 20.2071C3.89464 20.3946 4.149 20.5 4.41421 20.5H18.0858C18.351 20.5 18.6054 20.3946 18.7929 20.2071L20.7071 18.2929C20.8946 18.1054 21 17.851 21 17.5858V4.41421C21 4.149 20.8946 3.89464 20.7071 3.70711L18.7929 1.79289C18.6054 1.60536 18.351 1.5 18.0858 1.5H4.41421C4.149 1.5 3.89464 1.60536 3.70711 1.79289L1.79289 3.70711C1.60536 3.89464 1.5 4.149 1.5 4.41421Z" stroke="#616060" stroke-width="2"/>
</svg>
