<svg width="23" height="18" viewBox="0 0 23 18" fill="none" xmlns="http://www.w3.org/2000/svg">
<path d="M3.20711 1.54289L1.79289 2.95711C1.60536 3.14464 1.5 3.399 1.5 3.66421V14.3358C1.5 14.601 1.60536 14.8554 1.79289 15.0429L3.20711 16.4571C3.39464 16.6446 3.649 16.75 3.91421 16.75H13.5858C13.851 16.75 14.1054 16.6446 14.2929 16.4571L15.7071 15.0429C15.8946 14.8554 16 14.601 16 14.3358V12.9345C16 12.1755 16.8125 11.6932 17.4789 12.0566L20.0211 13.4434C20.6875 13.8068 21.5 13.3245 21.5 12.5655V5.07167C21.5 4.28258 20.6288 3.80437 19.9631 4.22801L17.5369 5.77199C16.8712 6.19563 16 5.71742 16 4.92833V3.66421C16 3.399 15.8946 3.14464 15.7071 2.95711L14.2929 1.54289C14.1054 1.35536 13.851 1.25 13.5858 1.25H3.91421C3.649 1.25 3.39464 1.35536 3.20711 1.54289Z" stroke="#616060" stroke-width="2"/>
</svg>
